G04 #@! TF.FileFunction,Copper,L2,Bot,Signal*
%FSLAX46Y46*%
G04 Gerber Fmt 4.6, Leading zero omitted, Abs format (unit mm)*
G04 Created by KiCad (PCBNEW 4.0.0-rc2-1-stable) date Thursday, January 28, 2016 'pmt' 05:59:00 pm*
%MOMM*%
G01*
G04 APERTURE LIST*
%ADD10C,0.100000*%
%ADD11C,3.500000*%
%ADD12O,1.501140X2.499360*%
%ADD13R,1.727200X2.032000*%
%ADD14O,1.727200X2.032000*%
%ADD15C,0.600000*%
%ADD16C,0.254000*%
G04 APERTURE END LIST*
D10*
D11*
X165100000Y-99060000D03*
X165100000Y-132080000D03*
X120650000Y-132080000D03*
X120650000Y-99060000D03*
D12*
X142240000Y-109220000D03*
X139700000Y-109220000D03*
X144780000Y-109220000D03*
D13*
X152400000Y-129540000D03*
D14*
X149860000Y-129540000D03*
X147320000Y-129540000D03*
X144780000Y-129540000D03*
X142240000Y-129540000D03*
X139700000Y-129540000D03*
X137160000Y-129540000D03*
X134620000Y-129540000D03*
X132080000Y-129540000D03*
D15*
X148590000Y-122428000D03*
X161290000Y-114300000D03*
X148590000Y-116586000D03*
X137668000Y-120904000D03*
X127000000Y-121920000D03*
D16*
G36*
X161163000Y-102870000D02*
X161173006Y-102919410D01*
X161201447Y-102961035D01*
X161243841Y-102988315D01*
X161290000Y-102997000D01*
X164973000Y-102997000D01*
X164973000Y-128143000D01*
X161290000Y-128143000D01*
X161240590Y-128153006D01*
X161198965Y-128181447D01*
X161171685Y-128223841D01*
X161163000Y-128270000D01*
X161163000Y-131953000D01*
X124587000Y-131953000D01*
X124587000Y-129355255D01*
X130581400Y-129355255D01*
X130581400Y-129724745D01*
X130695474Y-130298234D01*
X131020330Y-130784415D01*
X131506511Y-131109271D01*
X132080000Y-131223345D01*
X132653489Y-131109271D01*
X133139670Y-130784415D01*
X133350000Y-130469634D01*
X133560330Y-130784415D01*
X134046511Y-131109271D01*
X134620000Y-131223345D01*
X135193489Y-131109271D01*
X135679670Y-130784415D01*
X136004526Y-130298234D01*
X136118600Y-129724745D01*
X136118600Y-129355255D01*
X138201400Y-129355255D01*
X138201400Y-129724745D01*
X138315474Y-130298234D01*
X138640330Y-130784415D01*
X139126511Y-131109271D01*
X139700000Y-131223345D01*
X140273489Y-131109271D01*
X140759670Y-130784415D01*
X140970000Y-130469634D01*
X141180330Y-130784415D01*
X141666511Y-131109271D01*
X142240000Y-131223345D01*
X142813489Y-131109271D01*
X143299670Y-130784415D01*
X143510000Y-130469634D01*
X143720330Y-130784415D01*
X144206511Y-131109271D01*
X144780000Y-131223345D01*
X145353489Y-131109271D01*
X145839670Y-130784415D01*
X146050000Y-130469634D01*
X146260330Y-130784415D01*
X146746511Y-131109271D01*
X147320000Y-131223345D01*
X147893489Y-131109271D01*
X148379670Y-130784415D01*
X148704526Y-130298234D01*
X148818600Y-129724745D01*
X148818600Y-129355255D01*
X148704526Y-128781766D01*
X148532293Y-128524000D01*
X150888960Y-128524000D01*
X150888960Y-130556000D01*
X150933238Y-130791317D01*
X151072310Y-131007441D01*
X151284510Y-131152431D01*
X151536400Y-131203440D01*
X153263600Y-131203440D01*
X153498917Y-131159162D01*
X153715041Y-131020090D01*
X153860031Y-130807890D01*
X153911040Y-130556000D01*
X153911040Y-128524000D01*
X153866762Y-128288683D01*
X153727690Y-128072559D01*
X153515490Y-127927569D01*
X153263600Y-127876560D01*
X151536400Y-127876560D01*
X151301083Y-127920838D01*
X151084959Y-128059910D01*
X150939969Y-128272110D01*
X150888960Y-128524000D01*
X148532293Y-128524000D01*
X148379670Y-128295585D01*
X147893489Y-127970729D01*
X147320000Y-127856655D01*
X146746511Y-127970729D01*
X146260330Y-128295585D01*
X146050000Y-128610366D01*
X145839670Y-128295585D01*
X145353489Y-127970729D01*
X144780000Y-127856655D01*
X144206511Y-127970729D01*
X143720330Y-128295585D01*
X143510000Y-128610366D01*
X143299670Y-128295585D01*
X142813489Y-127970729D01*
X142240000Y-127856655D01*
X141666511Y-127970729D01*
X141180330Y-128295585D01*
X140970000Y-128610366D01*
X140759670Y-128295585D01*
X140273489Y-127970729D01*
X139700000Y-127856655D01*
X139126511Y-127970729D01*
X138640330Y-128295585D01*
X138315474Y-128781766D01*
X138201400Y-129355255D01*
X136118600Y-129355255D01*
X136004526Y-128781766D01*
X135679670Y-128295585D01*
X135193489Y-127970729D01*
X134620000Y-127856655D01*
X134046511Y-127970729D01*
X133560330Y-128295585D01*
X133350000Y-128610366D01*
X133139670Y-128295585D01*
X132653489Y-127970729D01*
X132080000Y-127856655D01*
X131506511Y-127970729D01*
X131020330Y-128295585D01*
X130695474Y-128781766D01*
X130581400Y-129355255D01*
X124587000Y-129355255D01*
X124587000Y-128270000D01*
X124576994Y-128220590D01*
X124548553Y-128178965D01*
X124506159Y-128151685D01*
X124460000Y-128143000D01*
X120777000Y-128143000D01*
X120777000Y-108683967D01*
X138314430Y-108683967D01*
X138314430Y-109756033D01*
X138419900Y-110286268D01*
X138720254Y-110735779D01*
X139169765Y-111036133D01*
X139700000Y-111141603D01*
X140230235Y-111036133D01*
X140679746Y-110735779D01*
X140970000Y-110301384D01*
X141260254Y-110735779D01*
X141709765Y-111036133D01*
X142240000Y-111141603D01*
X142770235Y-111036133D01*
X143219746Y-110735779D01*
X143510000Y-110301384D01*
X143800254Y-110735779D01*
X144249765Y-111036133D01*
X144780000Y-111141603D01*
X145310235Y-111036133D01*
X145759746Y-110735779D01*
X146060100Y-110286268D01*
X146165570Y-109756033D01*
X146165570Y-108683967D01*
X146060100Y-108153732D01*
X145759746Y-107704221D01*
X145310235Y-107403867D01*
X144780000Y-107298397D01*
X144249765Y-107403867D01*
X143800254Y-107704221D01*
X143510000Y-108138616D01*
X143219746Y-107704221D01*
X142770235Y-107403867D01*
X142240000Y-107298397D01*
X141709765Y-107403867D01*
X141260254Y-107704221D01*
X140970000Y-108138616D01*
X140679746Y-107704221D01*
X140230235Y-107403867D01*
X139700000Y-107298397D01*
X139169765Y-107403867D01*
X138720254Y-107704221D01*
X138419900Y-108153732D01*
X138314430Y-108683967D01*
X120777000Y-108683967D01*
X120777000Y-102997000D01*
X124460000Y-102997000D01*
X124509410Y-102986994D01*
X124551035Y-102958553D01*
X124578315Y-102916159D01*
X124587000Y-102870000D01*
X124587000Y-99187000D01*
X161163000Y-99187000D01*
X161163000Y-102870000D01*
X161163000Y-102870000D01*
G37*
X161163000Y-102870000D02*
X161173006Y-102919410D01*
X161201447Y-102961035D01*
X161243841Y-102988315D01*
X161290000Y-102997000D01*
X164973000Y-102997000D01*
X164973000Y-128143000D01*
X161290000Y-128143000D01*
X161240590Y-128153006D01*
X161198965Y-128181447D01*
X161171685Y-128223841D01*
X161163000Y-128270000D01*
X161163000Y-131953000D01*
X124587000Y-131953000D01*
X124587000Y-129355255D01*
X130581400Y-129355255D01*
X130581400Y-129724745D01*
X130695474Y-130298234D01*
X131020330Y-130784415D01*
X131506511Y-131109271D01*
X132080000Y-131223345D01*
X132653489Y-131109271D01*
X133139670Y-130784415D01*
X133350000Y-130469634D01*
X133560330Y-130784415D01*
X134046511Y-131109271D01*
X134620000Y-131223345D01*
X135193489Y-131109271D01*
X135679670Y-130784415D01*
X136004526Y-130298234D01*
X136118600Y-129724745D01*
X136118600Y-129355255D01*
X138201400Y-129355255D01*
X138201400Y-129724745D01*
X138315474Y-130298234D01*
X138640330Y-130784415D01*
X139126511Y-131109271D01*
X139700000Y-131223345D01*
X140273489Y-131109271D01*
X140759670Y-130784415D01*
X140970000Y-130469634D01*
X141180330Y-130784415D01*
X141666511Y-131109271D01*
X142240000Y-131223345D01*
X142813489Y-131109271D01*
X143299670Y-130784415D01*
X143510000Y-130469634D01*
X143720330Y-130784415D01*
X144206511Y-131109271D01*
X144780000Y-131223345D01*
X145353489Y-131109271D01*
X145839670Y-130784415D01*
X146050000Y-130469634D01*
X146260330Y-130784415D01*
X146746511Y-131109271D01*
X147320000Y-131223345D01*
X147893489Y-131109271D01*
X148379670Y-130784415D01*
X148704526Y-130298234D01*
X148818600Y-129724745D01*
X148818600Y-129355255D01*
X148704526Y-128781766D01*
X148532293Y-128524000D01*
X150888960Y-128524000D01*
X150888960Y-130556000D01*
X150933238Y-130791317D01*
X151072310Y-131007441D01*
X151284510Y-131152431D01*
X151536400Y-131203440D01*
X153263600Y-131203440D01*
X153498917Y-131159162D01*
X153715041Y-131020090D01*
X153860031Y-130807890D01*
X153911040Y-130556000D01*
X153911040Y-128524000D01*
X153866762Y-128288683D01*
X153727690Y-128072559D01*
X153515490Y-127927569D01*
X153263600Y-127876560D01*
X151536400Y-127876560D01*
X151301083Y-127920838D01*
X151084959Y-128059910D01*
X150939969Y-128272110D01*
X150888960Y-128524000D01*
X148532293Y-128524000D01*
X148379670Y-128295585D01*
X147893489Y-127970729D01*
X147320000Y-127856655D01*
X146746511Y-127970729D01*
X146260330Y-128295585D01*
X146050000Y-128610366D01*
X145839670Y-128295585D01*
X145353489Y-127970729D01*
X144780000Y-127856655D01*
X144206511Y-127970729D01*
X143720330Y-128295585D01*
X143510000Y-128610366D01*
X143299670Y-128295585D01*
X142813489Y-127970729D01*
X142240000Y-127856655D01*
X141666511Y-127970729D01*
X141180330Y-128295585D01*
X140970000Y-128610366D01*
X140759670Y-128295585D01*
X140273489Y-127970729D01*
X139700000Y-127856655D01*
X139126511Y-127970729D01*
X138640330Y-128295585D01*
X138315474Y-128781766D01*
X138201400Y-129355255D01*
X136118600Y-129355255D01*
X136004526Y-128781766D01*
X135679670Y-128295585D01*
X135193489Y-127970729D01*
X134620000Y-127856655D01*
X134046511Y-127970729D01*
X133560330Y-128295585D01*
X133350000Y-128610366D01*
X133139670Y-128295585D01*
X132653489Y-127970729D01*
X132080000Y-127856655D01*
X131506511Y-127970729D01*
X131020330Y-128295585D01*
X130695474Y-128781766D01*
X130581400Y-129355255D01*
X124587000Y-129355255D01*
X124587000Y-128270000D01*
X124576994Y-128220590D01*
X124548553Y-128178965D01*
X124506159Y-128151685D01*
X124460000Y-128143000D01*
X120777000Y-128143000D01*
X120777000Y-108683967D01*
X138314430Y-108683967D01*
X138314430Y-109756033D01*
X138419900Y-110286268D01*
X138720254Y-110735779D01*
X139169765Y-111036133D01*
X139700000Y-111141603D01*
X140230235Y-111036133D01*
X140679746Y-110735779D01*
X140970000Y-110301384D01*
X141260254Y-110735779D01*
X141709765Y-111036133D01*
X142240000Y-111141603D01*
X142770235Y-111036133D01*
X143219746Y-110735779D01*
X143510000Y-110301384D01*
X143800254Y-110735779D01*
X144249765Y-111036133D01*
X144780000Y-111141603D01*
X145310235Y-111036133D01*
X145759746Y-110735779D01*
X146060100Y-110286268D01*
X146165570Y-109756033D01*
X146165570Y-108683967D01*
X146060100Y-108153732D01*
X145759746Y-107704221D01*
X145310235Y-107403867D01*
X144780000Y-107298397D01*
X144249765Y-107403867D01*
X143800254Y-107704221D01*
X143510000Y-108138616D01*
X143219746Y-107704221D01*
X142770235Y-107403867D01*
X142240000Y-107298397D01*
X141709765Y-107403867D01*
X141260254Y-107704221D01*
X140970000Y-108138616D01*
X140679746Y-107704221D01*
X140230235Y-107403867D01*
X139700000Y-107298397D01*
X139169765Y-107403867D01*
X138720254Y-107704221D01*
X138419900Y-108153732D01*
X138314430Y-108683967D01*
X120777000Y-108683967D01*
X120777000Y-102997000D01*
X124460000Y-102997000D01*
X124509410Y-102986994D01*
X124551035Y-102958553D01*
X124578315Y-102916159D01*
X124587000Y-102870000D01*
X124587000Y-99187000D01*
X161163000Y-99187000D01*
X161163000Y-102870000D01*
M02*
