G04 #@! TF.FileFunction,Copper,L1,Top,Signal*
%FSLAX46Y46*%
G04 Gerber Fmt 4.6, Leading zero omitted, Abs format (unit mm)*
G04 Created by KiCad (PCBNEW 4.0.0-rc2-1-stable) date Thursday, January 28, 2016 'pmt' 05:59:00 pm*
%MOMM*%
G01*
G04 APERTURE LIST*
%ADD10C,0.100000*%
%ADD11C,3.500000*%
%ADD12R,3.500120X2.400300*%
%ADD13R,4.130000X2.370000*%
%ADD14R,1.250000X1.000000*%
%ADD15R,1.000000X1.250000*%
%ADD16R,2.430000X2.370000*%
%ADD17R,0.700000X1.300000*%
%ADD18R,1.000000X3.200000*%
%ADD19R,3.200000X1.000000*%
%ADD20R,1.550000X0.600000*%
%ADD21R,1.000000X3.000000*%
%ADD22R,2.000000X2.500000*%
%ADD23R,2.999740X2.999740*%
%ADD24O,1.501140X2.499360*%
%ADD25R,1.727200X2.032000*%
%ADD26O,1.727200X2.032000*%
%ADD27C,0.600000*%
%ADD28C,0.250000*%
%ADD29C,0.254000*%
G04 APERTURE END LIST*
D10*
D11*
X165100000Y-99060000D03*
X165100000Y-132080000D03*
X120650000Y-132080000D03*
X120650000Y-99060000D03*
D12*
X154228800Y-104140000D03*
X160731200Y-104140000D03*
D13*
X125730000Y-118690000D03*
X125730000Y-112450000D03*
D14*
X135890000Y-113300000D03*
X135890000Y-115300000D03*
D15*
X148860000Y-119380000D03*
X150860000Y-119380000D03*
D16*
X132080000Y-118690000D03*
X132080000Y-112450000D03*
D17*
X138110000Y-123190000D03*
X136210000Y-123190000D03*
D18*
X156770000Y-124460000D03*
X150570000Y-124460000D03*
D19*
X149860000Y-108660000D03*
X149860000Y-114860000D03*
D20*
X139540000Y-113665000D03*
X139540000Y-114935000D03*
X139540000Y-116205000D03*
X139540000Y-117475000D03*
X144940000Y-117475000D03*
X144940000Y-116205000D03*
X144940000Y-114935000D03*
X144940000Y-113665000D03*
X146210000Y-125095000D03*
X146210000Y-123825000D03*
X146210000Y-122555000D03*
X146210000Y-121285000D03*
X140810000Y-121285000D03*
X140810000Y-122555000D03*
X140810000Y-123825000D03*
X140810000Y-125095000D03*
D21*
X155180000Y-113030000D03*
X159780000Y-113030000D03*
D22*
X140540000Y-102870000D03*
X143940000Y-102870000D03*
D23*
X133350000Y-104140000D03*
X123190000Y-104140000D03*
D24*
X142240000Y-109220000D03*
X139700000Y-109220000D03*
X144780000Y-109220000D03*
D25*
X152400000Y-129540000D03*
D26*
X149860000Y-129540000D03*
X147320000Y-129540000D03*
X144780000Y-129540000D03*
X142240000Y-129540000D03*
X139700000Y-129540000D03*
X137160000Y-129540000D03*
X134620000Y-129540000D03*
X132080000Y-129540000D03*
D27*
X148590000Y-122428000D03*
X161290000Y-114300000D03*
X148590000Y-116586000D03*
X137668000Y-120904000D03*
X127000000Y-121920000D03*
D28*
X144940000Y-117475000D02*
X144940000Y-118270000D01*
X146050000Y-119380000D02*
X148860000Y-119380000D01*
X144940000Y-118270000D02*
X146050000Y-119380000D01*
X138110000Y-123190000D02*
X140175000Y-123190000D01*
X140175000Y-123190000D02*
X140810000Y-123825000D01*
X140810000Y-122555000D02*
X140810000Y-123825000D01*
X140810000Y-121285000D02*
X142875000Y-121285000D01*
X150570000Y-122122000D02*
X150570000Y-124460000D01*
X149352000Y-120904000D02*
X150570000Y-122122000D01*
X148590000Y-120904000D02*
X149352000Y-120904000D01*
X147828000Y-120142000D02*
X148590000Y-120904000D01*
X144018000Y-120142000D02*
X147828000Y-120142000D01*
X142875000Y-121285000D02*
X144018000Y-120142000D01*
X150570000Y-123646000D02*
X150570000Y-124460000D01*
X139540000Y-116205000D02*
X140208000Y-116205000D01*
X140208000Y-116205000D02*
X140970000Y-116967000D01*
X140970000Y-116967000D02*
X140970000Y-121125000D01*
X140970000Y-121125000D02*
X140810000Y-121285000D01*
X146210000Y-121285000D02*
X147447000Y-121285000D01*
X147447000Y-121285000D02*
X148590000Y-122428000D01*
X159780000Y-113030000D02*
X160020000Y-113030000D01*
X160020000Y-113030000D02*
X161290000Y-114300000D01*
X149860000Y-114860000D02*
X149860000Y-115316000D01*
X149860000Y-115316000D02*
X148590000Y-116586000D01*
X136210000Y-123190000D02*
X136210000Y-122362000D01*
X136210000Y-122362000D02*
X137668000Y-120904000D01*
X125730000Y-118690000D02*
X125730000Y-120650000D01*
X125730000Y-120650000D02*
X127000000Y-121920000D01*
X149860000Y-114860000D02*
X149860000Y-118380000D01*
X149860000Y-118380000D02*
X150860000Y-119380000D01*
X144940000Y-114935000D02*
X149785000Y-114935000D01*
X149785000Y-114935000D02*
X149860000Y-114860000D01*
X144940000Y-114935000D02*
X144940000Y-116205000D01*
X160731200Y-104140000D02*
X160731200Y-112078800D01*
X160731200Y-112078800D02*
X159780000Y-113030000D01*
X125730000Y-118690000D02*
X132080000Y-118690000D01*
X135890000Y-115300000D02*
X135470000Y-115300000D01*
X135470000Y-115300000D02*
X132080000Y-118690000D01*
X136210000Y-115620000D02*
X135890000Y-115300000D01*
X132080000Y-118690000D02*
X132500000Y-118690000D01*
X125730000Y-112450000D02*
X121920000Y-112450000D01*
X121920000Y-112450000D02*
X121920000Y-113030000D01*
X132080000Y-129540000D02*
X129540000Y-129540000D01*
X121920000Y-121920000D02*
X121920000Y-113030000D01*
X121920000Y-113030000D02*
X121920000Y-105410000D01*
X129540000Y-129540000D02*
X121920000Y-121920000D01*
X121920000Y-105410000D02*
X123190000Y-104140000D01*
X134620000Y-129540000D02*
X134112000Y-129032000D01*
X137414000Y-117856000D02*
X137414000Y-113300000D01*
X134112000Y-121158000D02*
X137414000Y-117856000D01*
X134112000Y-129032000D02*
X134112000Y-121158000D01*
X140810000Y-125095000D02*
X140810000Y-128618000D01*
X140810000Y-128618000D02*
X140970000Y-128778000D01*
X140970000Y-128778000D02*
X140970000Y-130302000D01*
X140970000Y-130302000D02*
X140208000Y-131064000D01*
X140208000Y-131064000D02*
X136144000Y-131064000D01*
X136144000Y-131064000D02*
X134620000Y-129540000D01*
X135890000Y-113300000D02*
X137414000Y-113300000D01*
X137414000Y-113300000D02*
X137430000Y-113300000D01*
X137922000Y-113792000D02*
X139065000Y-114935000D01*
X137430000Y-113300000D02*
X137922000Y-113792000D01*
X139065000Y-114935000D02*
X139540000Y-114935000D01*
X132080000Y-112450000D02*
X135040000Y-112450000D01*
X135040000Y-112450000D02*
X135890000Y-113300000D01*
X139700000Y-129540000D02*
X139446000Y-129540000D01*
X139446000Y-129540000D02*
X134874000Y-124968000D01*
X134874000Y-124968000D02*
X134874000Y-121158000D01*
X134874000Y-121158000D02*
X138557000Y-117475000D01*
X138557000Y-117475000D02*
X139540000Y-117475000D01*
X139540000Y-117475000D02*
X139319000Y-117475000D01*
X146210000Y-125095000D02*
X146177000Y-125095000D01*
X146177000Y-125095000D02*
X142240000Y-129032000D01*
X142240000Y-129032000D02*
X142240000Y-129540000D01*
X146210000Y-123825000D02*
X147320000Y-123825000D01*
X147828000Y-126111000D02*
X144780000Y-129159000D01*
X147828000Y-124333000D02*
X147828000Y-126111000D01*
X147320000Y-123825000D02*
X147828000Y-124333000D01*
X144780000Y-129159000D02*
X144780000Y-129540000D01*
X147320000Y-129540000D02*
X147320000Y-128651000D01*
X147193000Y-122555000D02*
X146210000Y-122555000D01*
X148717000Y-124079000D02*
X147193000Y-122555000D01*
X148717000Y-127254000D02*
X148717000Y-124079000D01*
X147320000Y-128651000D02*
X148717000Y-127254000D01*
X152400000Y-129540000D02*
X152400000Y-128830000D01*
X152400000Y-128830000D02*
X156770000Y-124460000D01*
X155180000Y-113030000D02*
X155180000Y-123124000D01*
X155180000Y-123124000D02*
X156516000Y-124460000D01*
X154228800Y-104140000D02*
X154228800Y-112078800D01*
X154228800Y-112078800D02*
X155180000Y-113030000D01*
X143940000Y-102870000D02*
X152958800Y-102870000D01*
X152958800Y-102870000D02*
X154228800Y-104140000D01*
D29*
G36*
X128143000Y-114173000D02*
X123190000Y-114173000D01*
X123140590Y-114183006D01*
X123098965Y-114211447D01*
X123071685Y-114253841D01*
X123063000Y-114300000D01*
X123063000Y-117280611D01*
X123017560Y-117505000D01*
X123017560Y-119875000D01*
X123061838Y-120110317D01*
X123063000Y-120112123D01*
X123063000Y-123190000D01*
X123073006Y-123239410D01*
X123101447Y-123281035D01*
X123143841Y-123308315D01*
X123190000Y-123317000D01*
X133223000Y-123317000D01*
X133223000Y-128844477D01*
X133121400Y-129355255D01*
X133121400Y-129724745D01*
X133223000Y-130235523D01*
X133223000Y-130683000D01*
X124587000Y-130683000D01*
X124587000Y-128270000D01*
X124576994Y-128220590D01*
X124548553Y-128178965D01*
X124506159Y-128151685D01*
X124460000Y-128143000D01*
X122047000Y-128143000D01*
X122047000Y-102997000D01*
X128143000Y-102997000D01*
X128143000Y-114173000D01*
X128143000Y-114173000D01*
G37*
X128143000Y-114173000D02*
X123190000Y-114173000D01*
X123140590Y-114183006D01*
X123098965Y-114211447D01*
X123071685Y-114253841D01*
X123063000Y-114300000D01*
X123063000Y-117280611D01*
X123017560Y-117505000D01*
X123017560Y-119875000D01*
X123061838Y-120110317D01*
X123063000Y-120112123D01*
X123063000Y-123190000D01*
X123073006Y-123239410D01*
X123101447Y-123281035D01*
X123143841Y-123308315D01*
X123190000Y-123317000D01*
X133223000Y-123317000D01*
X133223000Y-128844477D01*
X133121400Y-129355255D01*
X133121400Y-129724745D01*
X133223000Y-130235523D01*
X133223000Y-130683000D01*
X124587000Y-130683000D01*
X124587000Y-128270000D01*
X124576994Y-128220590D01*
X124548553Y-128178965D01*
X124506159Y-128151685D01*
X124460000Y-128143000D01*
X122047000Y-128143000D01*
X122047000Y-102997000D01*
X128143000Y-102997000D01*
X128143000Y-114173000D01*
G36*
X142113000Y-106680000D02*
X142123006Y-106729410D01*
X142150197Y-106769803D01*
X143383000Y-108002606D01*
X143383000Y-110363000D01*
X141097000Y-110363000D01*
X141097000Y-106680000D01*
X141086994Y-106630590D01*
X141058553Y-106588965D01*
X141016159Y-106561685D01*
X140970000Y-106553000D01*
X130937000Y-106553000D01*
X130937000Y-101727000D01*
X142113000Y-101727000D01*
X142113000Y-106680000D01*
X142113000Y-106680000D01*
G37*
X142113000Y-106680000D02*
X142123006Y-106729410D01*
X142150197Y-106769803D01*
X143383000Y-108002606D01*
X143383000Y-110363000D01*
X141097000Y-110363000D01*
X141097000Y-106680000D01*
X141086994Y-106630590D01*
X141058553Y-106588965D01*
X141016159Y-106561685D01*
X140970000Y-106553000D01*
X130937000Y-106553000D01*
X130937000Y-101727000D01*
X142113000Y-101727000D01*
X142113000Y-106680000D01*
G36*
X140815085Y-114173000D02*
X140763636Y-114173000D01*
X140566890Y-114038569D01*
X140315000Y-113987560D01*
X139192362Y-113987560D01*
X138557000Y-113352198D01*
X138557000Y-108077000D01*
X139595885Y-108077000D01*
X140815085Y-114173000D01*
X140815085Y-114173000D01*
G37*
X140815085Y-114173000D02*
X140763636Y-114173000D01*
X140566890Y-114038569D01*
X140315000Y-113987560D01*
X139192362Y-113987560D01*
X138557000Y-113352198D01*
X138557000Y-108077000D01*
X139595885Y-108077000D01*
X140815085Y-114173000D01*
G36*
X163703000Y-115443000D02*
X158877000Y-115443000D01*
X158877000Y-102997000D01*
X163703000Y-102997000D01*
X163703000Y-115443000D01*
X163703000Y-115443000D01*
G37*
X163703000Y-115443000D02*
X158877000Y-115443000D01*
X158877000Y-102997000D01*
X163703000Y-102997000D01*
X163703000Y-115443000D01*
G36*
X143913110Y-114561431D02*
X144165000Y-114612440D01*
X145715000Y-114612440D01*
X145950317Y-114568162D01*
X146166441Y-114429090D01*
X146167869Y-114427000D01*
X151003000Y-114427000D01*
X151003000Y-120523000D01*
X150045802Y-120523000D01*
X149987000Y-120464198D01*
X149987000Y-120105936D01*
X150007440Y-120005000D01*
X150007440Y-118755000D01*
X149987000Y-118646371D01*
X149987000Y-118110000D01*
X149976994Y-118060590D01*
X149948553Y-118018965D01*
X149916796Y-117996408D01*
X147376796Y-116726408D01*
X147320000Y-116713000D01*
X146163636Y-116713000D01*
X145966890Y-116578569D01*
X145715000Y-116527560D01*
X144165000Y-116527560D01*
X143929683Y-116571838D01*
X143713559Y-116710910D01*
X143712131Y-116713000D01*
X143637000Y-116713000D01*
X143637000Y-114427000D01*
X143716364Y-114427000D01*
X143913110Y-114561431D01*
X143913110Y-114561431D01*
G37*
X143913110Y-114561431D02*
X144165000Y-114612440D01*
X145715000Y-114612440D01*
X145950317Y-114568162D01*
X146166441Y-114429090D01*
X146167869Y-114427000D01*
X151003000Y-114427000D01*
X151003000Y-120523000D01*
X150045802Y-120523000D01*
X149987000Y-120464198D01*
X149987000Y-120105936D01*
X150007440Y-120005000D01*
X150007440Y-118755000D01*
X149987000Y-118646371D01*
X149987000Y-118110000D01*
X149976994Y-118060590D01*
X149948553Y-118018965D01*
X149916796Y-117996408D01*
X147376796Y-116726408D01*
X147320000Y-116713000D01*
X146163636Y-116713000D01*
X145966890Y-116578569D01*
X145715000Y-116527560D01*
X144165000Y-116527560D01*
X143929683Y-116571838D01*
X143713559Y-116710910D01*
X143712131Y-116713000D01*
X143637000Y-116713000D01*
X143637000Y-114427000D01*
X143716364Y-114427000D01*
X143913110Y-114561431D01*
G36*
X151520394Y-110871000D02*
X146558000Y-110871000D01*
X146508590Y-110881006D01*
X146466965Y-110909447D01*
X146439685Y-110951841D01*
X146431000Y-110998000D01*
X146431000Y-113665000D01*
X144145000Y-113665000D01*
X144145000Y-107823000D01*
X151754856Y-107823000D01*
X151520394Y-110871000D01*
X151520394Y-110871000D01*
G37*
X151520394Y-110871000D02*
X146558000Y-110871000D01*
X146508590Y-110881006D01*
X146466965Y-110909447D01*
X146439685Y-110951841D01*
X146431000Y-110998000D01*
X146431000Y-113665000D01*
X144145000Y-113665000D01*
X144145000Y-107823000D01*
X151754856Y-107823000D01*
X151520394Y-110871000D01*
G36*
X157353000Y-122225000D02*
X157055750Y-122225000D01*
X156897000Y-122383750D01*
X156897000Y-124333000D01*
X156917000Y-124333000D01*
X156917000Y-124587000D01*
X156897000Y-124587000D01*
X156897000Y-126536250D01*
X157055750Y-126695000D01*
X157353000Y-126695000D01*
X157353000Y-130683000D01*
X153898314Y-130683000D01*
X153898600Y-130682309D01*
X153898600Y-129825750D01*
X153739850Y-129667000D01*
X152527000Y-129667000D01*
X152527000Y-129687000D01*
X152273000Y-129687000D01*
X152273000Y-129667000D01*
X152253000Y-129667000D01*
X152253000Y-129413000D01*
X152273000Y-129413000D01*
X152273000Y-128047750D01*
X152527000Y-128047750D01*
X152527000Y-129413000D01*
X153739850Y-129413000D01*
X153898600Y-129254250D01*
X153898600Y-128397691D01*
X153801927Y-128164302D01*
X153623299Y-127985673D01*
X153389910Y-127889000D01*
X152685750Y-127889000D01*
X152527000Y-128047750D01*
X152273000Y-128047750D01*
X152114250Y-127889000D01*
X151690606Y-127889000D01*
X152489803Y-127089803D01*
X152517666Y-127047789D01*
X152527000Y-127000000D01*
X152527000Y-124745750D01*
X155635000Y-124745750D01*
X155635000Y-126186310D01*
X155731673Y-126419699D01*
X155910302Y-126598327D01*
X156143691Y-126695000D01*
X156484250Y-126695000D01*
X156643000Y-126536250D01*
X156643000Y-124587000D01*
X155793750Y-124587000D01*
X155635000Y-124745750D01*
X152527000Y-124745750D01*
X152527000Y-122733690D01*
X155635000Y-122733690D01*
X155635000Y-124174250D01*
X155793750Y-124333000D01*
X156643000Y-124333000D01*
X156643000Y-122383750D01*
X156484250Y-122225000D01*
X156143691Y-122225000D01*
X155910302Y-122321673D01*
X155731673Y-122500301D01*
X155635000Y-122733690D01*
X152527000Y-122733690D01*
X152527000Y-113315750D01*
X154045000Y-113315750D01*
X154045000Y-114656310D01*
X154141673Y-114889699D01*
X154320302Y-115068327D01*
X154553691Y-115165000D01*
X154894250Y-115165000D01*
X155053000Y-115006250D01*
X155053000Y-113157000D01*
X155307000Y-113157000D01*
X155307000Y-115006250D01*
X155465750Y-115165000D01*
X155806309Y-115165000D01*
X156039698Y-115068327D01*
X156218327Y-114889699D01*
X156315000Y-114656310D01*
X156315000Y-113315750D01*
X156156250Y-113157000D01*
X155307000Y-113157000D01*
X155053000Y-113157000D01*
X154203750Y-113157000D01*
X154045000Y-113315750D01*
X152527000Y-113315750D01*
X152527000Y-111403690D01*
X154045000Y-111403690D01*
X154045000Y-112744250D01*
X154203750Y-112903000D01*
X155053000Y-112903000D01*
X155053000Y-111053750D01*
X155307000Y-111053750D01*
X155307000Y-112903000D01*
X156156250Y-112903000D01*
X156315000Y-112744250D01*
X156315000Y-111403690D01*
X156218327Y-111170301D01*
X156039698Y-110991673D01*
X155806309Y-110895000D01*
X155465750Y-110895000D01*
X155307000Y-111053750D01*
X155053000Y-111053750D01*
X154894250Y-110895000D01*
X154553691Y-110895000D01*
X154320302Y-110991673D01*
X154141673Y-111170301D01*
X154045000Y-111403690D01*
X152527000Y-111403690D01*
X152527000Y-105975150D01*
X153943050Y-105975150D01*
X154101800Y-105816400D01*
X154101800Y-104267000D01*
X154355800Y-104267000D01*
X154355800Y-105816400D01*
X154514550Y-105975150D01*
X156105169Y-105975150D01*
X156338558Y-105878477D01*
X156517187Y-105699849D01*
X156613860Y-105466460D01*
X156613860Y-104425750D01*
X156455110Y-104267000D01*
X154355800Y-104267000D01*
X154101800Y-104267000D01*
X152002490Y-104267000D01*
X151843740Y-104425750D01*
X151843740Y-105283000D01*
X144907000Y-105283000D01*
X144907000Y-104755000D01*
X145066309Y-104755000D01*
X145299698Y-104658327D01*
X145478327Y-104479699D01*
X145575000Y-104246310D01*
X145575000Y-103155750D01*
X145416250Y-102997000D01*
X144907000Y-102997000D01*
X144907000Y-102813540D01*
X151843740Y-102813540D01*
X151843740Y-103854250D01*
X152002490Y-104013000D01*
X154101800Y-104013000D01*
X154101800Y-102463600D01*
X154355800Y-102463600D01*
X154355800Y-104013000D01*
X156455110Y-104013000D01*
X156613860Y-103854250D01*
X156613860Y-102813540D01*
X156517187Y-102580151D01*
X156338558Y-102401523D01*
X156105169Y-102304850D01*
X154514550Y-102304850D01*
X154355800Y-102463600D01*
X154101800Y-102463600D01*
X153943050Y-102304850D01*
X152352431Y-102304850D01*
X152119042Y-102401523D01*
X151940413Y-102580151D01*
X151843740Y-102813540D01*
X144907000Y-102813540D01*
X144907000Y-102743000D01*
X145416250Y-102743000D01*
X145575000Y-102584250D01*
X145575000Y-101493690D01*
X145478327Y-101260301D01*
X145299698Y-101081673D01*
X145066309Y-100985000D01*
X144907000Y-100985000D01*
X144907000Y-100457000D01*
X157353000Y-100457000D01*
X157353000Y-122225000D01*
X157353000Y-122225000D01*
G37*
X157353000Y-122225000D02*
X157055750Y-122225000D01*
X156897000Y-122383750D01*
X156897000Y-124333000D01*
X156917000Y-124333000D01*
X156917000Y-124587000D01*
X156897000Y-124587000D01*
X156897000Y-126536250D01*
X157055750Y-126695000D01*
X157353000Y-126695000D01*
X157353000Y-130683000D01*
X153898314Y-130683000D01*
X153898600Y-130682309D01*
X153898600Y-129825750D01*
X153739850Y-129667000D01*
X152527000Y-129667000D01*
X152527000Y-129687000D01*
X152273000Y-129687000D01*
X152273000Y-129667000D01*
X152253000Y-129667000D01*
X152253000Y-129413000D01*
X152273000Y-129413000D01*
X152273000Y-128047750D01*
X152527000Y-128047750D01*
X152527000Y-129413000D01*
X153739850Y-129413000D01*
X153898600Y-129254250D01*
X153898600Y-128397691D01*
X153801927Y-128164302D01*
X153623299Y-127985673D01*
X153389910Y-127889000D01*
X152685750Y-127889000D01*
X152527000Y-128047750D01*
X152273000Y-128047750D01*
X152114250Y-127889000D01*
X151690606Y-127889000D01*
X152489803Y-127089803D01*
X152517666Y-127047789D01*
X152527000Y-127000000D01*
X152527000Y-124745750D01*
X155635000Y-124745750D01*
X155635000Y-126186310D01*
X155731673Y-126419699D01*
X155910302Y-126598327D01*
X156143691Y-126695000D01*
X156484250Y-126695000D01*
X156643000Y-126536250D01*
X156643000Y-124587000D01*
X155793750Y-124587000D01*
X155635000Y-124745750D01*
X152527000Y-124745750D01*
X152527000Y-122733690D01*
X155635000Y-122733690D01*
X155635000Y-124174250D01*
X155793750Y-124333000D01*
X156643000Y-124333000D01*
X156643000Y-122383750D01*
X156484250Y-122225000D01*
X156143691Y-122225000D01*
X155910302Y-122321673D01*
X155731673Y-122500301D01*
X155635000Y-122733690D01*
X152527000Y-122733690D01*
X152527000Y-113315750D01*
X154045000Y-113315750D01*
X154045000Y-114656310D01*
X154141673Y-114889699D01*
X154320302Y-115068327D01*
X154553691Y-115165000D01*
X154894250Y-115165000D01*
X155053000Y-115006250D01*
X155053000Y-113157000D01*
X155307000Y-113157000D01*
X155307000Y-115006250D01*
X155465750Y-115165000D01*
X155806309Y-115165000D01*
X156039698Y-115068327D01*
X156218327Y-114889699D01*
X156315000Y-114656310D01*
X156315000Y-113315750D01*
X156156250Y-113157000D01*
X155307000Y-113157000D01*
X155053000Y-113157000D01*
X154203750Y-113157000D01*
X154045000Y-113315750D01*
X152527000Y-113315750D01*
X152527000Y-111403690D01*
X154045000Y-111403690D01*
X154045000Y-112744250D01*
X154203750Y-112903000D01*
X155053000Y-112903000D01*
X155053000Y-111053750D01*
X155307000Y-111053750D01*
X155307000Y-112903000D01*
X156156250Y-112903000D01*
X156315000Y-112744250D01*
X156315000Y-111403690D01*
X156218327Y-111170301D01*
X156039698Y-110991673D01*
X155806309Y-110895000D01*
X155465750Y-110895000D01*
X155307000Y-111053750D01*
X155053000Y-111053750D01*
X154894250Y-110895000D01*
X154553691Y-110895000D01*
X154320302Y-110991673D01*
X154141673Y-111170301D01*
X154045000Y-111403690D01*
X152527000Y-111403690D01*
X152527000Y-105975150D01*
X153943050Y-105975150D01*
X154101800Y-105816400D01*
X154101800Y-104267000D01*
X154355800Y-104267000D01*
X154355800Y-105816400D01*
X154514550Y-105975150D01*
X156105169Y-105975150D01*
X156338558Y-105878477D01*
X156517187Y-105699849D01*
X156613860Y-105466460D01*
X156613860Y-104425750D01*
X156455110Y-104267000D01*
X154355800Y-104267000D01*
X154101800Y-104267000D01*
X152002490Y-104267000D01*
X151843740Y-104425750D01*
X151843740Y-105283000D01*
X144907000Y-105283000D01*
X144907000Y-104755000D01*
X145066309Y-104755000D01*
X145299698Y-104658327D01*
X145478327Y-104479699D01*
X145575000Y-104246310D01*
X145575000Y-103155750D01*
X145416250Y-102997000D01*
X144907000Y-102997000D01*
X144907000Y-102813540D01*
X151843740Y-102813540D01*
X151843740Y-103854250D01*
X152002490Y-104013000D01*
X154101800Y-104013000D01*
X154101800Y-102463600D01*
X154355800Y-102463600D01*
X154355800Y-104013000D01*
X156455110Y-104013000D01*
X156613860Y-103854250D01*
X156613860Y-102813540D01*
X156517187Y-102580151D01*
X156338558Y-102401523D01*
X156105169Y-102304850D01*
X154514550Y-102304850D01*
X154355800Y-102463600D01*
X154101800Y-102463600D01*
X153943050Y-102304850D01*
X152352431Y-102304850D01*
X152119042Y-102401523D01*
X151940413Y-102580151D01*
X151843740Y-102813540D01*
X144907000Y-102813540D01*
X144907000Y-102743000D01*
X145416250Y-102743000D01*
X145575000Y-102584250D01*
X145575000Y-101493690D01*
X145478327Y-101260301D01*
X145299698Y-101081673D01*
X145066309Y-100985000D01*
X144907000Y-100985000D01*
X144907000Y-100457000D01*
X157353000Y-100457000D01*
X157353000Y-122225000D01*
M02*
