M48
;DRILL file {KiCad 4.0.0-rc2-1-stable} date Thursday, January 28, 2016 'pmt' 05:59:03 pm
;FORMAT={-:-/ absolute / inch / decimal}
FMAT,2
INCH,TZ
T1C0.016
T2C0.039
T3C0.040
T4C0.120
%
G90
G05
M72
T1
X5.Y-4.8
X5.42Y-4.76
X5.85Y-4.59
X5.85Y-4.82
X6.35Y-4.5
T2
X5.5Y-4.3
X5.6Y-4.3
X5.7Y-4.3
T3
X5.2Y-5.1
X5.3Y-5.1
X5.4Y-5.1
X5.5Y-5.1
X5.6Y-5.1
X5.7Y-5.1
X5.8Y-5.1
X5.9Y-5.1
X6.Y-5.1
T4
X4.75Y-3.9
X4.75Y-5.2
X6.5Y-3.9
X6.5Y-5.2
T0
M30
