M48
;DRILL file {KiCad 4.0.1-stable} date 2/11/2016 1:20:37 PM
;FORMAT={-:-/ absolute / inch / decimal}
FMAT,2
INCH,TZ
T1C0.024
T2C0.031
T3C0.039
T4C0.040
T5C0.120
%
G90
G05
M72
T1
X5.85Y-4.82
T2
X5.Y-4.8
X5.2Y-4.945
X5.31Y-4.99
X5.4Y-4.75
X5.435Y-4.71
X5.45Y-4.775
X5.45Y-4.935
X5.795Y-4.57
X5.85Y-4.59
X5.91Y-4.615
X6.35Y-4.5
T3
X5.5Y-4.3
X5.6Y-4.3
X5.7Y-4.3
T4
X5.2Y-5.1
X5.3Y-5.1
X5.4Y-5.1
X5.5Y-5.1
X5.6Y-5.1
X5.7Y-5.1
X5.8Y-5.1
X5.9Y-5.1
X6.Y-5.1
T5
X4.75Y-3.9
X4.75Y-5.2
X6.5Y-3.9
X6.5Y-5.2
T0
M30
