G04 #@! TF.FileFunction,Soldermask,Top*
%FSLAX46Y46*%
G04 Gerber Fmt 4.6, Leading zero omitted, Abs format (unit mm)*
G04 Created by KiCad (PCBNEW 4.0.1-stable) date 2/11/2016 1:20:39 PM*
%MOMM*%
G01*
G04 APERTURE LIST*
%ADD10C,0.100000*%
%ADD11C,3.900000*%
%ADD12R,3.900120X2.800300*%
%ADD13R,4.530000X2.770000*%
%ADD14R,1.650000X1.400000*%
%ADD15R,1.400000X1.650000*%
%ADD16R,2.830000X2.770000*%
%ADD17R,1.100000X1.700000*%
%ADD18R,1.400000X3.600000*%
%ADD19R,3.600000X1.400000*%
%ADD20R,1.950000X1.000000*%
%ADD21R,1.400000X3.400000*%
%ADD22R,2.400000X2.900000*%
%ADD23R,3.399740X3.399740*%
%ADD24O,1.901140X2.899360*%
%ADD25R,2.127200X2.432000*%
%ADD26O,2.127200X2.432000*%
G04 APERTURE END LIST*
D10*
D11*
X165100000Y-99060000D03*
X165100000Y-132080000D03*
X120650000Y-132080000D03*
X120650000Y-99060000D03*
D12*
X154228800Y-104140000D03*
X160731200Y-104140000D03*
D13*
X125730000Y-118690000D03*
X125730000Y-112450000D03*
D14*
X135890000Y-113300000D03*
X135890000Y-115300000D03*
D15*
X148860000Y-119380000D03*
X150860000Y-119380000D03*
D16*
X132080000Y-118690000D03*
X132080000Y-112450000D03*
D17*
X138110000Y-123190000D03*
X136210000Y-123190000D03*
D18*
X156770000Y-124460000D03*
X150570000Y-124460000D03*
D19*
X149860000Y-108660000D03*
X149860000Y-114860000D03*
D20*
X139540000Y-113665000D03*
X139540000Y-114935000D03*
X139540000Y-116205000D03*
X139540000Y-117475000D03*
X144940000Y-117475000D03*
X144940000Y-116205000D03*
X144940000Y-114935000D03*
X144940000Y-113665000D03*
X146210000Y-125095000D03*
X146210000Y-123825000D03*
X146210000Y-122555000D03*
X146210000Y-121285000D03*
X140810000Y-121285000D03*
X140810000Y-122555000D03*
X140810000Y-123825000D03*
X140810000Y-125095000D03*
D21*
X155180000Y-113030000D03*
X159780000Y-113030000D03*
D22*
X140540000Y-102870000D03*
X143940000Y-102870000D03*
D23*
X133350000Y-104140000D03*
X123190000Y-104140000D03*
D24*
X142240000Y-109220000D03*
X139700000Y-109220000D03*
X144780000Y-109220000D03*
D25*
X152400000Y-129540000D03*
D26*
X149860000Y-129540000D03*
X147320000Y-129540000D03*
X144780000Y-129540000D03*
X142240000Y-129540000D03*
X139700000Y-129540000D03*
X137160000Y-129540000D03*
X134620000Y-129540000D03*
X132080000Y-129540000D03*
M02*
