G04 #@! TF.FileFunction,Legend,Top*
%FSLAX46Y46*%
G04 Gerber Fmt 4.6, Leading zero omitted, Abs format (unit mm)*
G04 Created by KiCad (PCBNEW 4.0.1-stable) date 2/11/2016 1:20:39 PM*
%MOMM*%
G01*
G04 APERTURE LIST*
%ADD10C,0.100000*%
%ADD11C,0.150000*%
G04 APERTURE END LIST*
D10*
D11*
X123428095Y-95232857D02*
X123428095Y-94032857D01*
X123428095Y-94604286D02*
X123999524Y-94604286D01*
X123999524Y-95232857D02*
X123999524Y-94032857D01*
X124332857Y-94032857D02*
X124666190Y-95232857D01*
X124999524Y-94032857D01*
X126094762Y-94432857D02*
X126094762Y-95632857D01*
X126094762Y-94490000D02*
X126190000Y-94432857D01*
X126380477Y-94432857D01*
X126475715Y-94490000D01*
X126523334Y-94547143D01*
X126570953Y-94661429D01*
X126570953Y-95004286D01*
X126523334Y-95118571D01*
X126475715Y-95175714D01*
X126380477Y-95232857D01*
X126190000Y-95232857D01*
X126094762Y-95175714D01*
X127142381Y-95232857D02*
X127047143Y-95175714D01*
X126999524Y-95118571D01*
X126951905Y-95004286D01*
X126951905Y-94661429D01*
X126999524Y-94547143D01*
X127047143Y-94490000D01*
X127142381Y-94432857D01*
X127285239Y-94432857D01*
X127380477Y-94490000D01*
X127428096Y-94547143D01*
X127475715Y-94661429D01*
X127475715Y-95004286D01*
X127428096Y-95118571D01*
X127380477Y-95175714D01*
X127285239Y-95232857D01*
X127142381Y-95232857D01*
X127809048Y-94432857D02*
X127999524Y-95232857D01*
X128190001Y-94661429D01*
X128380477Y-95232857D01*
X128570953Y-94432857D01*
X129332858Y-95175714D02*
X129237620Y-95232857D01*
X129047143Y-95232857D01*
X128951905Y-95175714D01*
X128904286Y-95061429D01*
X128904286Y-94604286D01*
X128951905Y-94490000D01*
X129047143Y-94432857D01*
X129237620Y-94432857D01*
X129332858Y-94490000D01*
X129380477Y-94604286D01*
X129380477Y-94718571D01*
X128904286Y-94832857D01*
X129809048Y-95232857D02*
X129809048Y-94432857D01*
X129809048Y-94661429D02*
X129856667Y-94547143D01*
X129904286Y-94490000D01*
X129999524Y-94432857D01*
X130094763Y-94432857D01*
X131142382Y-95175714D02*
X131237620Y-95232857D01*
X131428096Y-95232857D01*
X131523335Y-95175714D01*
X131570954Y-95061429D01*
X131570954Y-95004286D01*
X131523335Y-94890000D01*
X131428096Y-94832857D01*
X131285239Y-94832857D01*
X131190001Y-94775714D01*
X131142382Y-94661429D01*
X131142382Y-94604286D01*
X131190001Y-94490000D01*
X131285239Y-94432857D01*
X131428096Y-94432857D01*
X131523335Y-94490000D01*
X132428097Y-94432857D02*
X132428097Y-95232857D01*
X131999525Y-94432857D02*
X131999525Y-95061429D01*
X132047144Y-95175714D01*
X132142382Y-95232857D01*
X132285240Y-95232857D01*
X132380478Y-95175714D01*
X132428097Y-95118571D01*
X132904287Y-94432857D02*
X132904287Y-95632857D01*
X132904287Y-94490000D02*
X132999525Y-94432857D01*
X133190002Y-94432857D01*
X133285240Y-94490000D01*
X133332859Y-94547143D01*
X133380478Y-94661429D01*
X133380478Y-95004286D01*
X133332859Y-95118571D01*
X133285240Y-95175714D01*
X133190002Y-95232857D01*
X132999525Y-95232857D01*
X132904287Y-95175714D01*
X133809049Y-94432857D02*
X133809049Y-95632857D01*
X133809049Y-94490000D02*
X133904287Y-94432857D01*
X134094764Y-94432857D01*
X134190002Y-94490000D01*
X134237621Y-94547143D01*
X134285240Y-94661429D01*
X134285240Y-95004286D01*
X134237621Y-95118571D01*
X134190002Y-95175714D01*
X134094764Y-95232857D01*
X133904287Y-95232857D01*
X133809049Y-95175714D01*
X134856668Y-95232857D02*
X134761430Y-95175714D01*
X134713811Y-95061429D01*
X134713811Y-94032857D01*
X135142383Y-94432857D02*
X135380478Y-95232857D01*
X135618574Y-94432857D02*
X135380478Y-95232857D01*
X135285240Y-95518571D01*
X135237621Y-95575714D01*
X135142383Y-95632857D01*
X136666193Y-94432857D02*
X136904288Y-95232857D01*
X137142384Y-94432857D01*
X138047146Y-95232857D02*
X137475717Y-95232857D01*
X137761431Y-95232857D02*
X137761431Y-94032857D01*
X137666193Y-94204286D01*
X137570955Y-94318571D01*
X137475717Y-94375714D01*
X138475717Y-95118571D02*
X138523336Y-95175714D01*
X138475717Y-95232857D01*
X138428098Y-95175714D01*
X138475717Y-95118571D01*
X138475717Y-95232857D01*
X139142383Y-94032857D02*
X139237622Y-94032857D01*
X139332860Y-94090000D01*
X139380479Y-94147143D01*
X139428098Y-94261429D01*
X139475717Y-94490000D01*
X139475717Y-94775714D01*
X139428098Y-95004286D01*
X139380479Y-95118571D01*
X139332860Y-95175714D01*
X139237622Y-95232857D01*
X139142383Y-95232857D01*
X139047145Y-95175714D01*
X138999526Y-95118571D01*
X138951907Y-95004286D01*
X138904288Y-94775714D01*
X138904288Y-94490000D01*
X138951907Y-94261429D01*
X138999526Y-94147143D01*
X139047145Y-94090000D01*
X139142383Y-94032857D01*
X139904288Y-95118571D02*
X139951907Y-95175714D01*
X139904288Y-95232857D01*
X139856669Y-95175714D01*
X139904288Y-95118571D01*
X139904288Y-95232857D01*
X140904288Y-95232857D02*
X140332859Y-95232857D01*
X140618573Y-95232857D02*
X140618573Y-94032857D01*
X140523335Y-94204286D01*
X140428097Y-94318571D01*
X140332859Y-94375714D01*
X123428095Y-97062857D02*
X123428095Y-95862857D01*
X123856667Y-97062857D02*
X123856667Y-96434286D01*
X123809048Y-96320000D01*
X123713810Y-96262857D01*
X123570952Y-96262857D01*
X123475714Y-96320000D01*
X123428095Y-96377143D01*
X124190000Y-96262857D02*
X124570952Y-96262857D01*
X124332857Y-95862857D02*
X124332857Y-96891429D01*
X124380476Y-97005714D01*
X124475714Y-97062857D01*
X124570952Y-97062857D01*
X124761429Y-96262857D02*
X125142381Y-96262857D01*
X124904286Y-95862857D02*
X124904286Y-96891429D01*
X124951905Y-97005714D01*
X125047143Y-97062857D01*
X125142381Y-97062857D01*
X125475715Y-96262857D02*
X125475715Y-97462857D01*
X125475715Y-96320000D02*
X125570953Y-96262857D01*
X125761430Y-96262857D01*
X125856668Y-96320000D01*
X125904287Y-96377143D01*
X125951906Y-96491429D01*
X125951906Y-96834286D01*
X125904287Y-96948571D01*
X125856668Y-97005714D01*
X125761430Y-97062857D01*
X125570953Y-97062857D01*
X125475715Y-97005714D01*
X126332858Y-97005714D02*
X126428096Y-97062857D01*
X126618572Y-97062857D01*
X126713811Y-97005714D01*
X126761430Y-96891429D01*
X126761430Y-96834286D01*
X126713811Y-96720000D01*
X126618572Y-96662857D01*
X126475715Y-96662857D01*
X126380477Y-96605714D01*
X126332858Y-96491429D01*
X126332858Y-96434286D01*
X126380477Y-96320000D01*
X126475715Y-96262857D01*
X126618572Y-96262857D01*
X126713811Y-96320000D01*
X127190001Y-96948571D02*
X127237620Y-97005714D01*
X127190001Y-97062857D01*
X127142382Y-97005714D01*
X127190001Y-96948571D01*
X127190001Y-97062857D01*
X127190001Y-96320000D02*
X127237620Y-96377143D01*
X127190001Y-96434286D01*
X127142382Y-96377143D01*
X127190001Y-96320000D01*
X127190001Y-96434286D01*
X128380477Y-95805714D02*
X127523334Y-97348571D01*
X129428096Y-95805714D02*
X128570953Y-97348571D01*
X130190001Y-96262857D02*
X130190001Y-97234286D01*
X130142382Y-97348571D01*
X130094763Y-97405714D01*
X129999524Y-97462857D01*
X129856667Y-97462857D01*
X129761429Y-97405714D01*
X130190001Y-97005714D02*
X130094763Y-97062857D01*
X129904286Y-97062857D01*
X129809048Y-97005714D01*
X129761429Y-96948571D01*
X129713810Y-96834286D01*
X129713810Y-96491429D01*
X129761429Y-96377143D01*
X129809048Y-96320000D01*
X129904286Y-96262857D01*
X130094763Y-96262857D01*
X130190001Y-96320000D01*
X130666191Y-97062857D02*
X130666191Y-96262857D01*
X130666191Y-95862857D02*
X130618572Y-95920000D01*
X130666191Y-95977143D01*
X130713810Y-95920000D01*
X130666191Y-95862857D01*
X130666191Y-95977143D01*
X130999524Y-96262857D02*
X131380476Y-96262857D01*
X131142381Y-95862857D02*
X131142381Y-96891429D01*
X131190000Y-97005714D01*
X131285238Y-97062857D01*
X131380476Y-97062857D01*
X131713810Y-97062857D02*
X131713810Y-95862857D01*
X132142382Y-97062857D02*
X132142382Y-96434286D01*
X132094763Y-96320000D01*
X131999525Y-96262857D01*
X131856667Y-96262857D01*
X131761429Y-96320000D01*
X131713810Y-96377143D01*
X133047144Y-96262857D02*
X133047144Y-97062857D01*
X132618572Y-96262857D02*
X132618572Y-96891429D01*
X132666191Y-97005714D01*
X132761429Y-97062857D01*
X132904287Y-97062857D01*
X132999525Y-97005714D01*
X133047144Y-96948571D01*
X133523334Y-97062857D02*
X133523334Y-95862857D01*
X133523334Y-96320000D02*
X133618572Y-96262857D01*
X133809049Y-96262857D01*
X133904287Y-96320000D01*
X133951906Y-96377143D01*
X133999525Y-96491429D01*
X133999525Y-96834286D01*
X133951906Y-96948571D01*
X133904287Y-97005714D01*
X133809049Y-97062857D01*
X133618572Y-97062857D01*
X133523334Y-97005714D01*
X134428096Y-96948571D02*
X134475715Y-97005714D01*
X134428096Y-97062857D01*
X134380477Y-97005714D01*
X134428096Y-96948571D01*
X134428096Y-97062857D01*
X135332858Y-97005714D02*
X135237620Y-97062857D01*
X135047143Y-97062857D01*
X134951905Y-97005714D01*
X134904286Y-96948571D01*
X134856667Y-96834286D01*
X134856667Y-96491429D01*
X134904286Y-96377143D01*
X134951905Y-96320000D01*
X135047143Y-96262857D01*
X135237620Y-96262857D01*
X135332858Y-96320000D01*
X135904286Y-97062857D02*
X135809048Y-97005714D01*
X135761429Y-96948571D01*
X135713810Y-96834286D01*
X135713810Y-96491429D01*
X135761429Y-96377143D01*
X135809048Y-96320000D01*
X135904286Y-96262857D01*
X136047144Y-96262857D01*
X136142382Y-96320000D01*
X136190001Y-96377143D01*
X136237620Y-96491429D01*
X136237620Y-96834286D01*
X136190001Y-96948571D01*
X136142382Y-97005714D01*
X136047144Y-97062857D01*
X135904286Y-97062857D01*
X136666191Y-97062857D02*
X136666191Y-96262857D01*
X136666191Y-96377143D02*
X136713810Y-96320000D01*
X136809048Y-96262857D01*
X136951906Y-96262857D01*
X137047144Y-96320000D01*
X137094763Y-96434286D01*
X137094763Y-97062857D01*
X137094763Y-96434286D02*
X137142382Y-96320000D01*
X137237620Y-96262857D01*
X137380477Y-96262857D01*
X137475715Y-96320000D01*
X137523334Y-96434286D01*
X137523334Y-97062857D01*
X138713810Y-95805714D02*
X137856667Y-97348571D01*
X138951905Y-96262857D02*
X139142381Y-97062857D01*
X139332858Y-96491429D01*
X139523334Y-97062857D01*
X139713810Y-96262857D01*
X140094762Y-97062857D02*
X140094762Y-95862857D01*
X140523334Y-97062857D02*
X140523334Y-96434286D01*
X140475715Y-96320000D01*
X140380477Y-96262857D01*
X140237619Y-96262857D01*
X140142381Y-96320000D01*
X140094762Y-96377143D01*
X141380477Y-97005714D02*
X141285239Y-97062857D01*
X141094762Y-97062857D01*
X140999524Y-97005714D01*
X140951905Y-96891429D01*
X140951905Y-96434286D01*
X140999524Y-96320000D01*
X141094762Y-96262857D01*
X141285239Y-96262857D01*
X141380477Y-96320000D01*
X141428096Y-96434286D01*
X141428096Y-96548571D01*
X140951905Y-96662857D01*
X142237620Y-97005714D02*
X142142382Y-97062857D01*
X141951905Y-97062857D01*
X141856667Y-97005714D01*
X141809048Y-96891429D01*
X141809048Y-96434286D01*
X141856667Y-96320000D01*
X141951905Y-96262857D01*
X142142382Y-96262857D01*
X142237620Y-96320000D01*
X142285239Y-96434286D01*
X142285239Y-96548571D01*
X141809048Y-96662857D01*
X142856667Y-97062857D02*
X142761429Y-97005714D01*
X142713810Y-96891429D01*
X142713810Y-95862857D01*
X143618573Y-97005714D02*
X143523335Y-97062857D01*
X143332858Y-97062857D01*
X143237620Y-97005714D01*
X143190001Y-96891429D01*
X143190001Y-96434286D01*
X143237620Y-96320000D01*
X143332858Y-96262857D01*
X143523335Y-96262857D01*
X143618573Y-96320000D01*
X143666192Y-96434286D01*
X143666192Y-96548571D01*
X143190001Y-96662857D01*
X144094763Y-97062857D02*
X144094763Y-96262857D01*
X144094763Y-96491429D02*
X144142382Y-96377143D01*
X144190001Y-96320000D01*
X144285239Y-96262857D01*
X144380478Y-96262857D01*
X144713811Y-96605714D02*
X145475716Y-96605714D01*
X145951906Y-97062857D02*
X145951906Y-96262857D01*
X145951906Y-96377143D02*
X145999525Y-96320000D01*
X146094763Y-96262857D01*
X146237621Y-96262857D01*
X146332859Y-96320000D01*
X146380478Y-96434286D01*
X146380478Y-97062857D01*
X146380478Y-96434286D02*
X146428097Y-96320000D01*
X146523335Y-96262857D01*
X146666192Y-96262857D01*
X146761430Y-96320000D01*
X146809049Y-96434286D01*
X146809049Y-97062857D01*
X147285239Y-97062857D02*
X147285239Y-96262857D01*
X147285239Y-95862857D02*
X147237620Y-95920000D01*
X147285239Y-95977143D01*
X147332858Y-95920000D01*
X147285239Y-95862857D01*
X147285239Y-95977143D01*
X148190001Y-97005714D02*
X148094763Y-97062857D01*
X147904286Y-97062857D01*
X147809048Y-97005714D01*
X147761429Y-96948571D01*
X147713810Y-96834286D01*
X147713810Y-96491429D01*
X147761429Y-96377143D01*
X147809048Y-96320000D01*
X147904286Y-96262857D01*
X148094763Y-96262857D01*
X148190001Y-96320000D01*
X148618572Y-97062857D02*
X148618572Y-96262857D01*
X148618572Y-96491429D02*
X148666191Y-96377143D01*
X148713810Y-96320000D01*
X148809048Y-96262857D01*
X148904287Y-96262857D01*
X149380477Y-97062857D02*
X149285239Y-97005714D01*
X149237620Y-96948571D01*
X149190001Y-96834286D01*
X149190001Y-96491429D01*
X149237620Y-96377143D01*
X149285239Y-96320000D01*
X149380477Y-96262857D01*
X149523335Y-96262857D01*
X149618573Y-96320000D01*
X149666192Y-96377143D01*
X149713811Y-96491429D01*
X149713811Y-96834286D01*
X149666192Y-96948571D01*
X149618573Y-97005714D01*
X149523335Y-97062857D01*
X149380477Y-97062857D01*
X149999525Y-96262857D02*
X150380477Y-96262857D01*
X150142382Y-97062857D02*
X150142382Y-96034286D01*
X150190001Y-95920000D01*
X150285239Y-95862857D01*
X150380477Y-95862857D01*
X150856668Y-97062857D02*
X150761430Y-97005714D01*
X150713811Y-96891429D01*
X150713811Y-95862857D01*
X151666193Y-96262857D02*
X151666193Y-97062857D01*
X151237621Y-96262857D02*
X151237621Y-96891429D01*
X151285240Y-97005714D01*
X151380478Y-97062857D01*
X151523336Y-97062857D01*
X151618574Y-97005714D01*
X151666193Y-96948571D01*
X152142383Y-97062857D02*
X152142383Y-96262857D01*
X152142383Y-95862857D02*
X152094764Y-95920000D01*
X152142383Y-95977143D01*
X152190002Y-95920000D01*
X152142383Y-95862857D01*
X152142383Y-95977143D01*
X153047145Y-97062857D02*
X153047145Y-95862857D01*
X153047145Y-97005714D02*
X152951907Y-97062857D01*
X152761430Y-97062857D01*
X152666192Y-97005714D01*
X152618573Y-96948571D01*
X152570954Y-96834286D01*
X152570954Y-96491429D01*
X152618573Y-96377143D01*
X152666192Y-96320000D01*
X152761430Y-96262857D01*
X152951907Y-96262857D01*
X153047145Y-96320000D01*
X153523335Y-97062857D02*
X153523335Y-96262857D01*
X153523335Y-95862857D02*
X153475716Y-95920000D01*
X153523335Y-95977143D01*
X153570954Y-95920000D01*
X153523335Y-95862857D01*
X153523335Y-95977143D01*
X154428097Y-97005714D02*
X154332859Y-97062857D01*
X154142382Y-97062857D01*
X154047144Y-97005714D01*
X153999525Y-96948571D01*
X153951906Y-96834286D01*
X153951906Y-96491429D01*
X153999525Y-96377143D01*
X154047144Y-96320000D01*
X154142382Y-96262857D01*
X154332859Y-96262857D01*
X154428097Y-96320000D01*
X154809049Y-97005714D02*
X154904287Y-97062857D01*
X155094763Y-97062857D01*
X155190002Y-97005714D01*
X155237621Y-96891429D01*
X155237621Y-96834286D01*
X155190002Y-96720000D01*
X155094763Y-96662857D01*
X154951906Y-96662857D01*
X154856668Y-96605714D01*
X154809049Y-96491429D01*
X154809049Y-96434286D01*
X154856668Y-96320000D01*
X154951906Y-96262857D01*
X155094763Y-96262857D01*
X155190002Y-96320000D01*
X156380478Y-95805714D02*
X155523335Y-97348571D01*
X124951905Y-98892857D02*
X124951905Y-97692857D01*
X125047143Y-98435714D02*
X125332858Y-98892857D01*
X125332858Y-98092857D02*
X124951905Y-98550000D01*
X125761429Y-98892857D02*
X125761429Y-98092857D01*
X125761429Y-97692857D02*
X125713810Y-97750000D01*
X125761429Y-97807143D01*
X125809048Y-97750000D01*
X125761429Y-97692857D01*
X125761429Y-97807143D01*
X126666191Y-98835714D02*
X126570953Y-98892857D01*
X126380476Y-98892857D01*
X126285238Y-98835714D01*
X126237619Y-98778571D01*
X126190000Y-98664286D01*
X126190000Y-98321429D01*
X126237619Y-98207143D01*
X126285238Y-98150000D01*
X126380476Y-98092857D01*
X126570953Y-98092857D01*
X126666191Y-98150000D01*
X127523334Y-98892857D02*
X127523334Y-98264286D01*
X127475715Y-98150000D01*
X127380477Y-98092857D01*
X127190000Y-98092857D01*
X127094762Y-98150000D01*
X127523334Y-98835714D02*
X127428096Y-98892857D01*
X127190000Y-98892857D01*
X127094762Y-98835714D01*
X127047143Y-98721429D01*
X127047143Y-98607143D01*
X127094762Y-98492857D01*
X127190000Y-98435714D01*
X127428096Y-98435714D01*
X127523334Y-98378571D01*
X128428096Y-98892857D02*
X128428096Y-97692857D01*
X128428096Y-98835714D02*
X128332858Y-98892857D01*
X128142381Y-98892857D01*
X128047143Y-98835714D01*
X127999524Y-98778571D01*
X127951905Y-98664286D01*
X127951905Y-98321429D01*
X127999524Y-98207143D01*
X128047143Y-98150000D01*
X128142381Y-98092857D01*
X128332858Y-98092857D01*
X128428096Y-98150000D01*
X128666191Y-99007143D02*
X129428096Y-99007143D01*
X129428096Y-99007143D02*
X130190001Y-99007143D01*
X130190001Y-99007143D02*
X130951906Y-99007143D01*
X131190001Y-98892857D02*
X131190001Y-97692857D01*
X131618573Y-98892857D02*
X131618573Y-98264286D01*
X131570954Y-98150000D01*
X131475716Y-98092857D01*
X131332858Y-98092857D01*
X131237620Y-98150000D01*
X131190001Y-98207143D01*
X131999525Y-98092857D02*
X132237620Y-98892857D01*
X132475716Y-98092857D01*
X132618573Y-99007143D02*
X133380478Y-99007143D01*
X133618573Y-98092857D02*
X133618573Y-99292857D01*
X133618573Y-98150000D02*
X133713811Y-98092857D01*
X133904288Y-98092857D01*
X133999526Y-98150000D01*
X134047145Y-98207143D01*
X134094764Y-98321429D01*
X134094764Y-98664286D01*
X134047145Y-98778571D01*
X133999526Y-98835714D01*
X133904288Y-98892857D01*
X133713811Y-98892857D01*
X133618573Y-98835714D01*
X134666192Y-98892857D02*
X134570954Y-98835714D01*
X134523335Y-98778571D01*
X134475716Y-98664286D01*
X134475716Y-98321429D01*
X134523335Y-98207143D01*
X134570954Y-98150000D01*
X134666192Y-98092857D01*
X134809050Y-98092857D01*
X134904288Y-98150000D01*
X134951907Y-98207143D01*
X134999526Y-98321429D01*
X134999526Y-98664286D01*
X134951907Y-98778571D01*
X134904288Y-98835714D01*
X134809050Y-98892857D01*
X134666192Y-98892857D01*
X135332859Y-98092857D02*
X135523335Y-98892857D01*
X135713812Y-98321429D01*
X135904288Y-98892857D01*
X136094764Y-98092857D01*
X136856669Y-98835714D02*
X136761431Y-98892857D01*
X136570954Y-98892857D01*
X136475716Y-98835714D01*
X136428097Y-98721429D01*
X136428097Y-98264286D01*
X136475716Y-98150000D01*
X136570954Y-98092857D01*
X136761431Y-98092857D01*
X136856669Y-98150000D01*
X136904288Y-98264286D01*
X136904288Y-98378571D01*
X136428097Y-98492857D01*
X137332859Y-98892857D02*
X137332859Y-98092857D01*
X137332859Y-98321429D02*
X137380478Y-98207143D01*
X137428097Y-98150000D01*
X137523335Y-98092857D01*
X137618574Y-98092857D01*
X137713812Y-99007143D02*
X138475717Y-99007143D01*
X138666193Y-98835714D02*
X138761431Y-98892857D01*
X138951907Y-98892857D01*
X139047146Y-98835714D01*
X139094765Y-98721429D01*
X139094765Y-98664286D01*
X139047146Y-98550000D01*
X138951907Y-98492857D01*
X138809050Y-98492857D01*
X138713812Y-98435714D01*
X138666193Y-98321429D01*
X138666193Y-98264286D01*
X138713812Y-98150000D01*
X138809050Y-98092857D01*
X138951907Y-98092857D01*
X139047146Y-98150000D01*
X139951908Y-98092857D02*
X139951908Y-98892857D01*
X139523336Y-98092857D02*
X139523336Y-98721429D01*
X139570955Y-98835714D01*
X139666193Y-98892857D01*
X139809051Y-98892857D01*
X139904289Y-98835714D01*
X139951908Y-98778571D01*
X140428098Y-98092857D02*
X140428098Y-99292857D01*
X140428098Y-98150000D02*
X140523336Y-98092857D01*
X140713813Y-98092857D01*
X140809051Y-98150000D01*
X140856670Y-98207143D01*
X140904289Y-98321429D01*
X140904289Y-98664286D01*
X140856670Y-98778571D01*
X140809051Y-98835714D01*
X140713813Y-98892857D01*
X140523336Y-98892857D01*
X140428098Y-98835714D01*
X141332860Y-98092857D02*
X141332860Y-99292857D01*
X141332860Y-98150000D02*
X141428098Y-98092857D01*
X141618575Y-98092857D01*
X141713813Y-98150000D01*
X141761432Y-98207143D01*
X141809051Y-98321429D01*
X141809051Y-98664286D01*
X141761432Y-98778571D01*
X141713813Y-98835714D01*
X141618575Y-98892857D01*
X141428098Y-98892857D01*
X141332860Y-98835714D01*
X142380479Y-98892857D02*
X142285241Y-98835714D01*
X142237622Y-98721429D01*
X142237622Y-97692857D01*
X142666194Y-98092857D02*
X142904289Y-98892857D01*
X143142385Y-98092857D02*
X142904289Y-98892857D01*
X142809051Y-99178571D01*
X142761432Y-99235714D01*
X142666194Y-99292857D01*
X150312381Y-135565714D02*
X149312381Y-135565714D01*
X149788571Y-135565714D02*
X149788571Y-134879999D01*
X150312381Y-134879999D02*
X149312381Y-134879999D01*
X149312381Y-134479999D02*
X150312381Y-134079999D01*
X149312381Y-133679999D01*
X149931429Y-133280000D02*
X149931429Y-132365714D01*
X152852381Y-135565714D02*
X151852381Y-135565714D01*
X152328571Y-135565714D02*
X152328571Y-134879999D01*
X152852381Y-134879999D02*
X151852381Y-134879999D01*
X151852381Y-134479999D02*
X152852381Y-134079999D01*
X151852381Y-133679999D01*
X152471429Y-133280000D02*
X152471429Y-132365714D01*
X152852381Y-132822857D02*
X152090476Y-132822857D01*
X147724762Y-133565715D02*
X147772381Y-133394286D01*
X147772381Y-133108572D01*
X147724762Y-132994286D01*
X147677143Y-132937143D01*
X147581905Y-132880000D01*
X147486667Y-132880000D01*
X147391429Y-132937143D01*
X147343810Y-132994286D01*
X147296190Y-133108572D01*
X147248571Y-133337143D01*
X147200952Y-133451429D01*
X147153333Y-133508572D01*
X147058095Y-133565715D01*
X146962857Y-133565715D01*
X146867619Y-133508572D01*
X146820000Y-133451429D01*
X146772381Y-133337143D01*
X146772381Y-133051429D01*
X146820000Y-132880000D01*
X147772381Y-132365715D02*
X146772381Y-132365715D01*
X145137143Y-134480000D02*
X145184762Y-134537143D01*
X145232381Y-134708572D01*
X145232381Y-134822858D01*
X145184762Y-134994286D01*
X145089524Y-135108572D01*
X144994286Y-135165715D01*
X144803810Y-135222858D01*
X144660952Y-135222858D01*
X144470476Y-135165715D01*
X144375238Y-135108572D01*
X144280000Y-134994286D01*
X144232381Y-134822858D01*
X144232381Y-134708572D01*
X144280000Y-134537143D01*
X144327619Y-134480000D01*
X145232381Y-133394286D02*
X145232381Y-133965715D01*
X144232381Y-133965715D01*
X145232381Y-132994286D02*
X144232381Y-132994286D01*
X145232381Y-132308571D02*
X144660952Y-132822857D01*
X144232381Y-132308571D02*
X144803810Y-132994286D01*
X142597143Y-133451428D02*
X142644762Y-133508571D01*
X142692381Y-133680000D01*
X142692381Y-133794286D01*
X142644762Y-133965714D01*
X142549524Y-134080000D01*
X142454286Y-134137143D01*
X142263810Y-134194286D01*
X142120952Y-134194286D01*
X141930476Y-134137143D01*
X141835238Y-134080000D01*
X141740000Y-133965714D01*
X141692381Y-133794286D01*
X141692381Y-133680000D01*
X141740000Y-133508571D01*
X141787619Y-133451428D01*
X142644762Y-132994286D02*
X142692381Y-132822857D01*
X142692381Y-132537143D01*
X142644762Y-132422857D01*
X142597143Y-132365714D01*
X142501905Y-132308571D01*
X142406667Y-132308571D01*
X142311429Y-132365714D01*
X142263810Y-132422857D01*
X142216190Y-132537143D01*
X142168571Y-132765714D01*
X142120952Y-132880000D01*
X142073333Y-132937143D01*
X141978095Y-132994286D01*
X141882857Y-132994286D01*
X141787619Y-132937143D01*
X141740000Y-132880000D01*
X141692381Y-132765714D01*
X141692381Y-132480000D01*
X141740000Y-132308571D01*
X140104762Y-136251428D02*
X140152381Y-136079999D01*
X140152381Y-135794285D01*
X140104762Y-135679999D01*
X140057143Y-135622856D01*
X139961905Y-135565713D01*
X139866667Y-135565713D01*
X139771429Y-135622856D01*
X139723810Y-135679999D01*
X139676190Y-135794285D01*
X139628571Y-136022856D01*
X139580952Y-136137142D01*
X139533333Y-136194285D01*
X139438095Y-136251428D01*
X139342857Y-136251428D01*
X139247619Y-136194285D01*
X139200000Y-136137142D01*
X139152381Y-136022856D01*
X139152381Y-135737142D01*
X139200000Y-135565713D01*
X140152381Y-135051428D02*
X139152381Y-135051428D01*
X140152381Y-134537142D02*
X139628571Y-134537142D01*
X139533333Y-134594285D01*
X139485714Y-134708571D01*
X139485714Y-134879999D01*
X139533333Y-134994285D01*
X139580952Y-135051428D01*
X140152381Y-133451428D02*
X139152381Y-133451428D01*
X140104762Y-133451428D02*
X140152381Y-133565714D01*
X140152381Y-133794285D01*
X140104762Y-133908571D01*
X140057143Y-133965714D01*
X139961905Y-134022857D01*
X139676190Y-134022857D01*
X139580952Y-133965714D01*
X139533333Y-133908571D01*
X139485714Y-133794285D01*
X139485714Y-133565714D01*
X139533333Y-133451428D01*
X139485714Y-132880000D02*
X140152381Y-132880000D01*
X139580952Y-132880000D02*
X139533333Y-132822857D01*
X139485714Y-132708571D01*
X139485714Y-132537143D01*
X139533333Y-132422857D01*
X139628571Y-132365714D01*
X140152381Y-132365714D01*
X136660000Y-134822857D02*
X136612381Y-134937143D01*
X136612381Y-135108572D01*
X136660000Y-135280000D01*
X136755238Y-135394286D01*
X136850476Y-135451429D01*
X137040952Y-135508572D01*
X137183810Y-135508572D01*
X137374286Y-135451429D01*
X137469524Y-135394286D01*
X137564762Y-135280000D01*
X137612381Y-135108572D01*
X137612381Y-134994286D01*
X137564762Y-134822857D01*
X137517143Y-134765714D01*
X137183810Y-134765714D01*
X137183810Y-134994286D01*
X137612381Y-134251429D02*
X136612381Y-134251429D01*
X137612381Y-133565714D01*
X136612381Y-133565714D01*
X137612381Y-132994286D02*
X136612381Y-132994286D01*
X136612381Y-132708571D01*
X136660000Y-132537143D01*
X136755238Y-132422857D01*
X136850476Y-132365714D01*
X137040952Y-132308571D01*
X137183810Y-132308571D01*
X137374286Y-132365714D01*
X137469524Y-132422857D01*
X137564762Y-132537143D01*
X137612381Y-132708571D01*
X137612381Y-132994286D01*
X134072381Y-135051427D02*
X135072381Y-134651427D01*
X134072381Y-134251427D01*
X135024762Y-133337142D02*
X135072381Y-133451428D01*
X135072381Y-133679999D01*
X135024762Y-133794285D01*
X134977143Y-133851428D01*
X134881905Y-133908571D01*
X134596190Y-133908571D01*
X134500952Y-133851428D01*
X134453333Y-133794285D01*
X134405714Y-133679999D01*
X134405714Y-133451428D01*
X134453333Y-133337142D01*
X135024762Y-132308571D02*
X135072381Y-132422857D01*
X135072381Y-132651428D01*
X135024762Y-132765714D01*
X134977143Y-132822857D01*
X134881905Y-132880000D01*
X134596190Y-132880000D01*
X134500952Y-132822857D01*
X134453333Y-132765714D01*
X134405714Y-132651428D01*
X134405714Y-132422857D01*
X134453333Y-132308571D01*
X132532381Y-135565715D02*
X131532381Y-135565715D01*
X131532381Y-135108572D01*
X131580000Y-134994286D01*
X131627619Y-134937143D01*
X131722857Y-134880000D01*
X131865714Y-134880000D01*
X131960952Y-134937143D01*
X132008571Y-134994286D01*
X132056190Y-135108572D01*
X132056190Y-135565715D01*
X131532381Y-134480000D02*
X132532381Y-134194286D01*
X131818095Y-133965715D01*
X132532381Y-133737143D01*
X131532381Y-133451429D01*
X132532381Y-132308571D02*
X132056190Y-132708571D01*
X132532381Y-132994286D02*
X131532381Y-132994286D01*
X131532381Y-132537143D01*
X131580000Y-132422857D01*
X131627619Y-132365714D01*
X131722857Y-132308571D01*
X131865714Y-132308571D01*
X131960952Y-132365714D01*
X132008571Y-132422857D01*
X132056190Y-132537143D01*
X132056190Y-132994286D01*
X167100000Y-99060000D02*
G75*
G03X167100000Y-99060000I-2000000J0D01*
G01*
X167100000Y-132080000D02*
G75*
G03X167100000Y-132080000I-2000000J0D01*
G01*
X122650000Y-132080000D02*
G75*
G03X122650000Y-132080000I-2000000J0D01*
G01*
X122650000Y-99060000D02*
G75*
G03X122650000Y-99060000I-2000000J0D01*
G01*
X161290000Y-105156000D02*
X161290000Y-103124000D01*
X161163000Y-102743000D02*
X161163000Y-105537000D01*
X161036000Y-105791000D02*
X161036000Y-102489000D01*
X160909000Y-102235000D02*
X160909000Y-106045000D01*
X160782000Y-102108000D02*
X160782000Y-106172000D01*
X160655000Y-106426000D02*
X160655000Y-101854000D01*
X161671000Y-108331000D02*
X161671000Y-99949000D01*
X161671000Y-99949000D02*
X154051000Y-99949000D01*
X154051000Y-99949000D02*
X153289000Y-100711000D01*
X153289000Y-100711000D02*
X153289000Y-107569000D01*
X153289000Y-107569000D02*
X154051000Y-108331000D01*
X154051000Y-108331000D02*
X161671000Y-108331000D01*
X153797000Y-104140000D02*
X154559000Y-104140000D01*
X154178000Y-104521000D02*
X154178000Y-103759000D01*
X161417000Y-104140000D02*
G75*
G03X161417000Y-104140000I-3937000J0D01*
G01*
X122630000Y-119270000D02*
X122630000Y-111370000D01*
X128830000Y-119270000D02*
X128830000Y-111370000D01*
X136740000Y-114800000D02*
X136740000Y-113800000D01*
X135040000Y-113800000D02*
X135040000Y-114800000D01*
X150360000Y-118530000D02*
X149360000Y-118530000D01*
X149360000Y-120230000D02*
X150360000Y-120230000D01*
X129880000Y-111370000D02*
X129880000Y-119370000D01*
X134280000Y-119370000D02*
X134280000Y-111270000D01*
X136560000Y-122315000D02*
X137760000Y-122315000D01*
X137760000Y-124065000D02*
X136560000Y-124065000D01*
X151070000Y-122635000D02*
X156270000Y-122635000D01*
X156270000Y-126285000D02*
X151070000Y-126285000D01*
X148035000Y-114360000D02*
X148035000Y-109160000D01*
X151685000Y-109160000D02*
X151685000Y-114360000D01*
X140165000Y-112995000D02*
X140165000Y-113140000D01*
X144315000Y-112995000D02*
X144315000Y-113140000D01*
X144315000Y-118145000D02*
X144315000Y-118000000D01*
X140165000Y-118145000D02*
X140165000Y-118000000D01*
X140165000Y-112995000D02*
X144315000Y-112995000D01*
X140165000Y-118145000D02*
X144315000Y-118145000D01*
X140165000Y-113140000D02*
X138765000Y-113140000D01*
X145585000Y-125765000D02*
X145585000Y-125620000D01*
X141435000Y-125765000D02*
X141435000Y-125620000D01*
X141435000Y-120615000D02*
X141435000Y-120760000D01*
X145585000Y-120615000D02*
X145585000Y-120760000D01*
X145585000Y-125765000D02*
X141435000Y-125765000D01*
X145585000Y-120615000D02*
X141435000Y-120615000D01*
X145585000Y-125620000D02*
X146985000Y-125620000D01*
X159280000Y-111305000D02*
X155680000Y-111305000D01*
X155680000Y-114755000D02*
X159280000Y-114755000D01*
X144490000Y-104820000D02*
X144490000Y-104420000D01*
X144490000Y-100920000D02*
X144490000Y-101320000D01*
X139990000Y-100920000D02*
X139990000Y-101320000D01*
X139990000Y-104820000D02*
X139990000Y-104420000D01*
X143590000Y-100920000D02*
X143590000Y-101320000D01*
X143590000Y-101320000D02*
X143440000Y-101320000D01*
X143440000Y-101320000D02*
X143440000Y-100920000D01*
X143590000Y-104820000D02*
X143590000Y-104420000D01*
X143590000Y-104420000D02*
X143440000Y-104420000D01*
X143440000Y-104420000D02*
X143440000Y-104820000D01*
X144490000Y-104820000D02*
X139990000Y-104820000D01*
X139990000Y-100920000D02*
X144490000Y-100920000D01*
X133229509Y-104140000D02*
G75*
G03X133229509Y-104140000I-4959509J0D01*
G01*
X121539000Y-102489000D02*
X125603000Y-99949000D01*
X121539000Y-105791000D02*
X125603000Y-108331000D01*
X121539000Y-105791000D02*
X121539000Y-102489000D01*
X135001000Y-102489000D02*
X130937000Y-99949000D01*
X135001000Y-105791000D02*
X135001000Y-102489000D01*
X135001000Y-105791000D02*
X130937000Y-108331000D01*
X140716000Y-106172000D02*
X140716000Y-107315000D01*
X143764000Y-106172000D02*
X143764000Y-107315000D01*
X147574000Y-107315000D02*
X147574000Y-110998000D01*
X147574000Y-110998000D02*
X136906000Y-110998000D01*
X136906000Y-110998000D02*
X136906000Y-107315000D01*
X147574000Y-106172000D02*
X147574000Y-107315000D01*
X147574000Y-107315000D02*
X136906000Y-107315000D01*
X136906000Y-107315000D02*
X136906000Y-106172000D01*
X142240000Y-106172000D02*
X136906000Y-106172000D01*
X142240000Y-106172000D02*
X147574000Y-106172000D01*
X151130000Y-130810000D02*
X130810000Y-130810000D01*
X130810000Y-130810000D02*
X130810000Y-128270000D01*
X130810000Y-128270000D02*
X151130000Y-128270000D01*
X153950000Y-131090000D02*
X152400000Y-131090000D01*
X151130000Y-130810000D02*
X151130000Y-128270000D01*
X152400000Y-127990000D02*
X153950000Y-127990000D01*
X153950000Y-127990000D02*
X153950000Y-131090000D01*
X157313334Y-109577143D02*
X157265715Y-109624762D01*
X157122858Y-109672381D01*
X157027620Y-109672381D01*
X156884762Y-109624762D01*
X156789524Y-109529524D01*
X156741905Y-109434286D01*
X156694286Y-109243810D01*
X156694286Y-109100952D01*
X156741905Y-108910476D01*
X156789524Y-108815238D01*
X156884762Y-108720000D01*
X157027620Y-108672381D01*
X157122858Y-108672381D01*
X157265715Y-108720000D01*
X157313334Y-108767619D01*
X158170477Y-109005714D02*
X158170477Y-109672381D01*
X157932381Y-108624762D02*
X157694286Y-109339048D01*
X158313334Y-109339048D01*
X130186703Y-115637606D02*
X130234322Y-115685225D01*
X130281941Y-115828082D01*
X130281941Y-115923320D01*
X130234322Y-116066178D01*
X130139084Y-116161416D01*
X130043846Y-116209035D01*
X129853370Y-116256654D01*
X129710512Y-116256654D01*
X129520036Y-116209035D01*
X129424798Y-116161416D01*
X129329560Y-116066178D01*
X129281941Y-115923320D01*
X129281941Y-115828082D01*
X129329560Y-115685225D01*
X129377179Y-115637606D01*
X130281941Y-114685225D02*
X130281941Y-115256654D01*
X130281941Y-114970940D02*
X129281941Y-114970940D01*
X129424798Y-115066178D01*
X129520036Y-115161416D01*
X129567655Y-115256654D01*
X138347143Y-114466666D02*
X138394762Y-114514285D01*
X138442381Y-114657142D01*
X138442381Y-114752380D01*
X138394762Y-114895238D01*
X138299524Y-114990476D01*
X138204286Y-115038095D01*
X138013810Y-115085714D01*
X137870952Y-115085714D01*
X137680476Y-115038095D01*
X137585238Y-114990476D01*
X137490000Y-114895238D01*
X137442381Y-114752380D01*
X137442381Y-114657142D01*
X137490000Y-114514285D01*
X137537619Y-114466666D01*
X137537619Y-114085714D02*
X137490000Y-114038095D01*
X137442381Y-113942857D01*
X137442381Y-113704761D01*
X137490000Y-113609523D01*
X137537619Y-113561904D01*
X137632857Y-113514285D01*
X137728095Y-113514285D01*
X137870952Y-113561904D01*
X138442381Y-114133333D01*
X138442381Y-113514285D01*
X149693334Y-117637143D02*
X149645715Y-117684762D01*
X149502858Y-117732381D01*
X149407620Y-117732381D01*
X149264762Y-117684762D01*
X149169524Y-117589524D01*
X149121905Y-117494286D01*
X149074286Y-117303810D01*
X149074286Y-117160952D01*
X149121905Y-116970476D01*
X149169524Y-116875238D01*
X149264762Y-116780000D01*
X149407620Y-116732381D01*
X149502858Y-116732381D01*
X149645715Y-116780000D01*
X149693334Y-116827619D01*
X150026667Y-116732381D02*
X150645715Y-116732381D01*
X150312381Y-117113333D01*
X150455239Y-117113333D01*
X150550477Y-117160952D01*
X150598096Y-117208571D01*
X150645715Y-117303810D01*
X150645715Y-117541905D01*
X150598096Y-117637143D01*
X150550477Y-117684762D01*
X150455239Y-117732381D01*
X150169524Y-117732381D01*
X150074286Y-117684762D01*
X150026667Y-117637143D01*
X135736603Y-115536006D02*
X135784222Y-115583625D01*
X135831841Y-115726482D01*
X135831841Y-115821720D01*
X135784222Y-115964578D01*
X135688984Y-116059816D01*
X135593746Y-116107435D01*
X135403270Y-116155054D01*
X135260412Y-116155054D01*
X135069936Y-116107435D01*
X134974698Y-116059816D01*
X134879460Y-115964578D01*
X134831841Y-115821720D01*
X134831841Y-115726482D01*
X134879460Y-115583625D01*
X134927079Y-115536006D01*
X134831841Y-114631244D02*
X134831841Y-115107435D01*
X135308031Y-115155054D01*
X135260412Y-115107435D01*
X135212793Y-115012197D01*
X135212793Y-114774101D01*
X135260412Y-114678863D01*
X135308031Y-114631244D01*
X135403270Y-114583625D01*
X135641365Y-114583625D01*
X135736603Y-114631244D01*
X135784222Y-114678863D01*
X135831841Y-114774101D01*
X135831841Y-115012197D01*
X135784222Y-115107435D01*
X135736603Y-115155054D01*
X135723334Y-125547381D02*
X135390000Y-125071190D01*
X135151905Y-125547381D02*
X135151905Y-124547381D01*
X135532858Y-124547381D01*
X135628096Y-124595000D01*
X135675715Y-124642619D01*
X135723334Y-124737857D01*
X135723334Y-124880714D01*
X135675715Y-124975952D01*
X135628096Y-125023571D01*
X135532858Y-125071190D01*
X135151905Y-125071190D01*
X136675715Y-125547381D02*
X136104286Y-125547381D01*
X136390000Y-125547381D02*
X136390000Y-124547381D01*
X136294762Y-124690238D01*
X136199524Y-124785476D01*
X136104286Y-124833095D01*
X153503334Y-122372381D02*
X153170000Y-121896190D01*
X152931905Y-122372381D02*
X152931905Y-121372381D01*
X153312858Y-121372381D01*
X153408096Y-121420000D01*
X153455715Y-121467619D01*
X153503334Y-121562857D01*
X153503334Y-121705714D01*
X153455715Y-121800952D01*
X153408096Y-121848571D01*
X153312858Y-121896190D01*
X152931905Y-121896190D01*
X153884286Y-121467619D02*
X153931905Y-121420000D01*
X154027143Y-121372381D01*
X154265239Y-121372381D01*
X154360477Y-121420000D01*
X154408096Y-121467619D01*
X154455715Y-121562857D01*
X154455715Y-121658095D01*
X154408096Y-121800952D01*
X153836667Y-122372381D01*
X154455715Y-122372381D01*
X153412381Y-111926666D02*
X152936190Y-112260000D01*
X153412381Y-112498095D02*
X152412381Y-112498095D01*
X152412381Y-112117142D01*
X152460000Y-112021904D01*
X152507619Y-111974285D01*
X152602857Y-111926666D01*
X152745714Y-111926666D01*
X152840952Y-111974285D01*
X152888571Y-112021904D01*
X152936190Y-112117142D01*
X152936190Y-112498095D01*
X152412381Y-111021904D02*
X152412381Y-111498095D01*
X152888571Y-111545714D01*
X152840952Y-111498095D01*
X152793333Y-111402857D01*
X152793333Y-111164761D01*
X152840952Y-111069523D01*
X152888571Y-111021904D01*
X152983810Y-110974285D01*
X153221905Y-110974285D01*
X153317143Y-111021904D01*
X153364762Y-111069523D01*
X153412381Y-111164761D01*
X153412381Y-111402857D01*
X153364762Y-111498095D01*
X153317143Y-111545714D01*
X141478095Y-111522381D02*
X141478095Y-112331905D01*
X141525714Y-112427143D01*
X141573333Y-112474762D01*
X141668571Y-112522381D01*
X141859048Y-112522381D01*
X141954286Y-112474762D01*
X142001905Y-112427143D01*
X142049524Y-112331905D01*
X142049524Y-111522381D01*
X143049524Y-112522381D02*
X142478095Y-112522381D01*
X142763809Y-112522381D02*
X142763809Y-111522381D01*
X142668571Y-111665238D01*
X142573333Y-111760476D01*
X142478095Y-111808095D01*
X142748095Y-126142381D02*
X142748095Y-126951905D01*
X142795714Y-127047143D01*
X142843333Y-127094762D01*
X142938571Y-127142381D01*
X143129048Y-127142381D01*
X143224286Y-127094762D01*
X143271905Y-127047143D01*
X143319524Y-126951905D01*
X143319524Y-126142381D01*
X143748095Y-126237619D02*
X143795714Y-126190000D01*
X143890952Y-126142381D01*
X144129048Y-126142381D01*
X144224286Y-126190000D01*
X144271905Y-126237619D01*
X144319524Y-126332857D01*
X144319524Y-126428095D01*
X144271905Y-126570952D01*
X143700476Y-127142381D01*
X144319524Y-127142381D01*
X157313334Y-115927143D02*
X157265715Y-115974762D01*
X157122858Y-116022381D01*
X157027620Y-116022381D01*
X156884762Y-115974762D01*
X156789524Y-115879524D01*
X156741905Y-115784286D01*
X156694286Y-115593810D01*
X156694286Y-115450952D01*
X156741905Y-115260476D01*
X156789524Y-115165238D01*
X156884762Y-115070000D01*
X157027620Y-115022381D01*
X157122858Y-115022381D01*
X157265715Y-115070000D01*
X157313334Y-115117619D01*
X158170477Y-115022381D02*
X157980000Y-115022381D01*
X157884762Y-115070000D01*
X157837143Y-115117619D01*
X157741905Y-115260476D01*
X157694286Y-115450952D01*
X157694286Y-115831905D01*
X157741905Y-115927143D01*
X157789524Y-115974762D01*
X157884762Y-116022381D01*
X158075239Y-116022381D01*
X158170477Y-115974762D01*
X158218096Y-115927143D01*
X158265715Y-115831905D01*
X158265715Y-115593810D01*
X158218096Y-115498571D01*
X158170477Y-115450952D01*
X158075239Y-115403333D01*
X157884762Y-115403333D01*
X157789524Y-115450952D01*
X157741905Y-115498571D01*
X157694286Y-115593810D01*
X145311905Y-100782381D02*
X145311905Y-99782381D01*
X145550000Y-99782381D01*
X145692858Y-99830000D01*
X145788096Y-99925238D01*
X145835715Y-100020476D01*
X145883334Y-100210952D01*
X145883334Y-100353810D01*
X145835715Y-100544286D01*
X145788096Y-100639524D01*
X145692858Y-100734762D01*
X145550000Y-100782381D01*
X145311905Y-100782381D01*
X146835715Y-100782381D02*
X146264286Y-100782381D01*
X146550000Y-100782381D02*
X146550000Y-99782381D01*
X146454762Y-99925238D01*
X146359524Y-100020476D01*
X146264286Y-100068095D01*
X128103334Y-107259381D02*
X127627143Y-107259381D01*
X127627143Y-106259381D01*
X128960477Y-107259381D02*
X128389048Y-107259381D01*
X128674762Y-107259381D02*
X128674762Y-106259381D01*
X128579524Y-106402238D01*
X128484286Y-106497476D01*
X128389048Y-106545095D01*
X135794762Y-109767619D02*
X135699524Y-109720000D01*
X135604286Y-109624762D01*
X135461429Y-109481905D01*
X135366190Y-109434286D01*
X135270952Y-109434286D01*
X135318571Y-109672381D02*
X135223333Y-109624762D01*
X135128095Y-109529524D01*
X135080476Y-109339048D01*
X135080476Y-109005714D01*
X135128095Y-108815238D01*
X135223333Y-108720000D01*
X135318571Y-108672381D01*
X135509048Y-108672381D01*
X135604286Y-108720000D01*
X135699524Y-108815238D01*
X135747143Y-109005714D01*
X135747143Y-109339048D01*
X135699524Y-109529524D01*
X135604286Y-109624762D01*
X135509048Y-109672381D01*
X135318571Y-109672381D01*
X136699524Y-109672381D02*
X136128095Y-109672381D01*
X136413809Y-109672381D02*
X136413809Y-108672381D01*
X136318571Y-108815238D01*
X136223333Y-108910476D01*
X136128095Y-108958095D01*
X157952381Y-130278095D02*
X156952381Y-130278095D01*
X156952381Y-129897142D01*
X157000000Y-129801904D01*
X157047619Y-129754285D01*
X157142857Y-129706666D01*
X157285714Y-129706666D01*
X157380952Y-129754285D01*
X157428571Y-129801904D01*
X157476190Y-129897142D01*
X157476190Y-130278095D01*
X157952381Y-128754285D02*
X157952381Y-129325714D01*
X157952381Y-129040000D02*
X156952381Y-129040000D01*
X157095238Y-129135238D01*
X157190476Y-129230476D01*
X157238095Y-129325714D01*
M02*
